# xmcd
#
# Track frame offsets: 
#        150
#        16343
#        34479
#        51123
#        63378
#        78308
#        93787
#        107338
#        122885
#        139091
#        152561
#        170820
#        187799
#        204459
#        219047
#        235341
#        252237
#        268797
#
# Disc length: 3822 seconds
#
# Revision: 0
# Processed by: cddbd v1.5.2PL0 Copyright (c) Steve Scherf et al.
# Submitted via: ExactAudioCopy v0.95b4
#
DISCID=ef0eec12
DTITLE=Keshia Chanté - 2U
DYEAR=2006
DGENRE=R&B
TTITLE0=Been Gone
TTITLE1=Kiss
TTITLE2=Fallen (feat. Freeway)
TTITLE3=Beep Beep
TTITLE4=2U
TTITLE5=Summer Love
TTITLE6=Be About Yours
TTITLE7=Little Things
TTITLE8=Can't Believe
TTITLE9=Stomp
TTITLE10=Too Much
TTITLE11=Sorry
TTITLE12=Cool On You
TTITLE13=Ring The Alarm (Keshia Chanté Remix)
TTITLE14=Unpredictable
TTITLE15=Bad Boy
TTITLE16=Does He Love Me (feat. Foxy Brown)
TTITLE17=Let The Music Take You
EXTD=
EXTT0=
EXTT1=
EXTT2=
EXTT3=
EXTT4=
EXTT5=
EXTT6=
EXTT7=
EXTT8=
EXTT9=
EXTT10=
EXTT11=
EXTT12=
EXTT13=
EXTT14=
EXTT15=
EXTT16=
EXTT17=
PLAYORDER=
